<?xml version="1.0" encoding="UTF-8" standalone="no"?>
<!-- Created with Inkscape (http://www.inkscape.org/) -->

<svg
   xmlns:dc="http://purl.org/dc/elements/1.1/"
   xmlns:cc="http://creativecommons.org/ns#"
   xmlns:rdf="http://www.w3.org/1999/02/22-rdf-syntax-ns#"
   xmlns:svg="http://www.w3.org/2000/svg"
   xmlns="http://www.w3.org/2000/svg"
   xmlns:sodipodi="http://sodipodi.sourceforge.net/DTD/sodipodi-0.dtd"
   xmlns:inkscape="http://www.inkscape.org/namespaces/inkscape"
   width="210mm"
   height="297mm"
   viewBox="0 0 744.09448819 1052.3622047"
   id="svg2"
   version="1.1"
   inkscape:version="0.91 r13725"
   sodipodi:docname="board_master.svg">
  <defs
     id="defs4" />
  <sodipodi:namedview
     id="base"
     pagecolor="#ffffff"
     bordercolor="#666666"
     borderopacity="1.0"
     inkscape:pageopacity="0.0"
     inkscape:pageshadow="2"
     inkscape:zoom="2.8"
     inkscape:cx="-81.582459"
     inkscape:cy="837.1996"
     inkscape:document-units="px"
     inkscape:current-layer="layer1"
     showgrid="true"
     inkscape:snap-bbox="true"
     inkscape:bbox-nodes="true"
     inkscape:window-width="1920"
     inkscape:window-height="1137"
     inkscape:window-x="-8"
     inkscape:window-y="-8"
     inkscape:window-maximized="1">
    <inkscape:grid
       type="xygrid"
       id="grid3336" />
  </sodipodi:namedview>
  <metadata
     id="metadata7">
    <rdf:RDF>
      <cc:Work
         rdf:about="">
        <dc:format>image/svg+xml</dc:format>
        <dc:type
           rdf:resource="http://purl.org/dc/dcmitype/StillImage" />
        <dc:title />
      </cc:Work>
    </rdf:RDF>
  </metadata>
  <g
     inkscape:label="Layer 1"
     inkscape:groupmode="layer"
     id="layer1">
    <rect
       style="fill:none;stroke:#000000;stroke-width:1;stroke-linecap:butt;stroke-linejoin:miter;stroke-miterlimit:4;stroke-dasharray:none;stroke-opacity:1"
       id="rect3338"
       width="699.00012"
       height="599.00012"
       x="-839.5"
       y="72.862206" />
    <path
       style="fill:#0000ff;stroke:#000000;stroke-width:1.0000186;stroke-linecap:butt;stroke-linejoin:miter;stroke-miterlimit:4;stroke-dasharray:none;stroke-opacity:1"
       d="m -839.49999,72.862214 0,98.999976 98.99998,0 0,-98.999976 -98.99998,0 z m 49.49884,6.30193 a 43.199655,43.199654 0 0 1 43.20155,43.199216 43.199655,43.199654 0 0 1 -43.20155,43.19923 43.199655,43.199654 0 0 1 -43.19925,-43.19923 43.199655,43.199654 0 0 1 43.19925,-43.199216 z"
       id="rect4140"
       inkscape:connector-curvature="0" />
    <path
       style="fill:#0000ff;stroke:#000000;stroke-width:1.0000186;stroke-linecap:butt;stroke-linejoin:miter;stroke-miterlimit:4;stroke-dasharray:none;stroke-opacity:1"
       d="m -739.49999,72.862214 0,98.999976 98.99998,0 0,-98.999976 -98.99998,0 z m 49.49884,6.30193 a 43.199655,43.199654 0 0 1 43.20155,43.199216 43.199655,43.199654 0 0 1 -43.20155,43.19923 43.199655,43.199654 0 0 1 -43.19925,-43.19923 43.199655,43.199654 0 0 1 43.19925,-43.199216 z"
       id="rect4140-3"
       inkscape:connector-curvature="0" />
    <path
       style="fill:#0000ff;stroke:#000000;stroke-width:1.0000186;stroke-linecap:butt;stroke-linejoin:miter;stroke-miterlimit:4;stroke-dasharray:none;stroke-opacity:1"
       d="m -839.49999,172.86221 0,98.99998 98.99998,0 0,-98.99998 -98.99998,0 z m 49.49884,6.30193 a 43.199655,43.199654 0 0 1 43.20155,43.19922 43.199655,43.199654 0 0 1 -43.20155,43.19923 43.199655,43.199654 0 0 1 -43.19925,-43.19923 43.199655,43.199654 0 0 1 43.19925,-43.19922 z"
       id="rect4140-5"
       inkscape:connector-curvature="0" />
    <path
       style="fill:#0000ff;stroke:#000000;stroke-width:1.0000186;stroke-linecap:butt;stroke-linejoin:miter;stroke-miterlimit:4;stroke-dasharray:none;stroke-opacity:1"
       d="m -739.49999,172.86221 0,98.99998 98.99998,0 0,-98.99998 -98.99998,0 z m 49.49884,6.30193 a 43.199655,43.199654 0 0 1 43.20155,43.19922 43.199655,43.199654 0 0 1 -43.20155,43.19923 43.199655,43.199654 0 0 1 -43.19925,-43.19923 43.199655,43.199654 0 0 1 43.19925,-43.19922 z"
       id="rect4140-3-9"
       inkscape:connector-curvature="0" />
    <path
       style="fill:#0000ff;stroke:#000000;stroke-width:1.0000186;stroke-linecap:butt;stroke-linejoin:miter;stroke-miterlimit:4;stroke-dasharray:none;stroke-opacity:1"
       d="m -639.49999,72.862214 0,98.999976 98.99998,0 0,-98.999976 -98.99998,0 z m 49.49884,6.30193 a 43.199655,43.199654 0 0 1 43.20155,43.199216 43.199655,43.199654 0 0 1 -43.20155,43.19923 43.199655,43.199654 0 0 1 -43.19925,-43.19923 43.199655,43.199654 0 0 1 43.19925,-43.199216 z"
       id="rect4140-0"
       inkscape:connector-curvature="0" />
    <path
       style="fill:#0000ff;stroke:#000000;stroke-width:1.0000186;stroke-linecap:butt;stroke-linejoin:miter;stroke-miterlimit:4;stroke-dasharray:none;stroke-opacity:1"
       d="m -539.49999,72.862214 0,98.999976 98.99998,0 0,-98.999976 -98.99998,0 z m 49.49884,6.30193 a 43.199655,43.199654 0 0 1 43.20155,43.199216 43.199655,43.199654 0 0 1 -43.20155,43.19923 43.199655,43.199654 0 0 1 -43.19925,-43.19923 43.199655,43.199654 0 0 1 43.19925,-43.199216 z"
       id="rect4140-3-5"
       inkscape:connector-curvature="0" />
    <path
       style="fill:#0000ff;stroke:#000000;stroke-width:1.0000186;stroke-linecap:butt;stroke-linejoin:miter;stroke-miterlimit:4;stroke-dasharray:none;stroke-opacity:1"
       d="m -639.49999,172.86221 0,98.99998 98.99998,0 0,-98.99998 -98.99998,0 z m 49.49884,6.30193 a 43.199655,43.199654 0 0 1 43.20155,43.19922 43.199655,43.199654 0 0 1 -43.20155,43.19923 43.199655,43.199654 0 0 1 -43.19925,-43.19923 43.199655,43.199654 0 0 1 43.19925,-43.19922 z"
       id="rect4140-5-8"
       inkscape:connector-curvature="0" />
    <path
       style="fill:#0000ff;stroke:#000000;stroke-width:1.0000186;stroke-linecap:butt;stroke-linejoin:miter;stroke-miterlimit:4;stroke-dasharray:none;stroke-opacity:1"
       d="m -539.49999,172.86221 0,98.99998 98.99998,0 0,-98.99998 -98.99998,0 z m 49.49884,6.30193 a 43.199655,43.199654 0 0 1 43.20155,43.19922 43.199655,43.199654 0 0 1 -43.20155,43.19923 43.199655,43.199654 0 0 1 -43.19925,-43.19923 43.199655,43.199654 0 0 1 43.19925,-43.19922 z"
       id="rect4140-3-9-1"
       inkscape:connector-curvature="0" />
    <path
       style="fill:#0000ff;stroke:#000000;stroke-width:1.0000186;stroke-linecap:butt;stroke-linejoin:miter;stroke-miterlimit:4;stroke-dasharray:none;stroke-opacity:1"
       d="m -839.49999,272.86221 0,98.99998 98.99998,0 0,-98.99998 -98.99998,0 z m 49.49884,6.30193 a 43.199655,43.199654 0 0 1 43.20155,43.19922 43.199655,43.199654 0 0 1 -43.20155,43.19923 43.199655,43.199654 0 0 1 -43.19925,-43.19923 43.199655,43.199654 0 0 1 43.19925,-43.19922 z"
       id="rect4140-36"
       inkscape:connector-curvature="0" />
    <path
       style="fill:#0000ff;stroke:#000000;stroke-width:1.0000186;stroke-linecap:butt;stroke-linejoin:miter;stroke-miterlimit:4;stroke-dasharray:none;stroke-opacity:1"
       d="m -739.49999,272.86221 0,98.99998 98.99998,0 0,-98.99998 -98.99998,0 z m 49.49884,6.30193 a 43.199655,43.199654 0 0 1 43.20155,43.19922 43.199655,43.199654 0 0 1 -43.20155,43.19923 43.199655,43.199654 0 0 1 -43.19925,-43.19923 43.199655,43.199654 0 0 1 43.19925,-43.19922 z"
       id="rect4140-3-4"
       inkscape:connector-curvature="0" />
    <path
       style="fill:#0000ff;stroke:#000000;stroke-width:1.0000186;stroke-linecap:butt;stroke-linejoin:miter;stroke-miterlimit:4;stroke-dasharray:none;stroke-opacity:1"
       d="m -839.49999,372.86221 0,98.99998 98.99998,0 0,-98.99998 -98.99998,0 z m 49.49884,6.30193 a 43.199655,43.199654 0 0 1 43.20155,43.19922 43.199655,43.199654 0 0 1 -43.20155,43.19923 43.199655,43.199654 0 0 1 -43.19925,-43.19923 43.199655,43.199654 0 0 1 43.19925,-43.19922 z"
       id="rect4140-5-1"
       inkscape:connector-curvature="0" />
    <path
       style="fill:#0000ff;stroke:#000000;stroke-width:1.0000186;stroke-linecap:butt;stroke-linejoin:miter;stroke-miterlimit:4;stroke-dasharray:none;stroke-opacity:1"
       d="m -739.49999,372.86221 0,98.99998 98.99998,0 0,-98.99998 -98.99998,0 z m 49.49884,6.30193 a 43.199655,43.199654 0 0 1 43.20155,43.19922 43.199655,43.199654 0 0 1 -43.20155,43.19923 43.199655,43.199654 0 0 1 -43.19925,-43.19923 43.199655,43.199654 0 0 1 43.19925,-43.19922 z"
       id="rect4140-3-9-7"
       inkscape:connector-curvature="0" />
    <path
       style="fill:#0000ff;stroke:#000000;stroke-width:1.0000186;stroke-linecap:butt;stroke-linejoin:miter;stroke-miterlimit:4;stroke-dasharray:none;stroke-opacity:1"
       d="m -639.49999,272.86221 0,98.99998 98.99998,0 0,-98.99998 -98.99998,0 z m 49.49884,6.30193 a 43.199655,43.199654 0 0 1 43.20155,43.19922 43.199655,43.199654 0 0 1 -43.20155,43.19923 43.199655,43.199654 0 0 1 -43.19925,-43.19923 43.199655,43.199654 0 0 1 43.19925,-43.19922 z"
       id="rect4140-0-8"
       inkscape:connector-curvature="0" />
    <path
       style="fill:#0000ff;stroke:#000000;stroke-width:1.0000186;stroke-linecap:butt;stroke-linejoin:miter;stroke-miterlimit:4;stroke-dasharray:none;stroke-opacity:1"
       d="m -539.49999,272.86221 0,98.99998 98.99998,0 0,-98.99998 -98.99998,0 z m 49.49884,6.30193 a 43.199655,43.199654 0 0 1 43.20155,43.19922 43.199655,43.199654 0 0 1 -43.20155,43.19923 43.199655,43.199654 0 0 1 -43.19925,-43.19923 43.199655,43.199654 0 0 1 43.19925,-43.19922 z"
       id="rect4140-3-5-6"
       inkscape:connector-curvature="0" />
    <path
       style="fill:#0000ff;stroke:#000000;stroke-width:1.0000186;stroke-linecap:butt;stroke-linejoin:miter;stroke-miterlimit:4;stroke-dasharray:none;stroke-opacity:1"
       d="m -639.49999,372.86221 0,98.99998 98.99998,0 0,-98.99998 -98.99998,0 z m 49.49884,6.30193 a 43.199655,43.199654 0 0 1 43.20155,43.19922 43.199655,43.199654 0 0 1 -43.20155,43.19923 43.199655,43.199654 0 0 1 -43.19925,-43.19923 43.199655,43.199654 0 0 1 43.19925,-43.19922 z"
       id="rect4140-5-8-9"
       inkscape:connector-curvature="0" />
    <path
       style="fill:#0000ff;stroke:#000000;stroke-width:1.0000186;stroke-linecap:butt;stroke-linejoin:miter;stroke-miterlimit:4;stroke-dasharray:none;stroke-opacity:1"
       d="m -539.49999,372.86221 0,98.99998 98.99998,0 0,-98.99998 -98.99998,0 z m 49.49884,6.30193 a 43.199655,43.199654 0 0 1 43.20155,43.19922 43.199655,43.199654 0 0 1 -43.20155,43.19923 43.199655,43.199654 0 0 1 -43.19925,-43.19923 43.199655,43.199654 0 0 1 43.19925,-43.19922 z"
       id="rect4140-3-9-1-1"
       inkscape:connector-curvature="0" />
    <path
       style="fill:#0000ff;stroke:#000000;stroke-width:1.0000186;stroke-linecap:butt;stroke-linejoin:miter;stroke-miterlimit:4;stroke-dasharray:none;stroke-opacity:1"
       d="m -839.49999,472.86221 0,98.99998 98.99998,0 0,-98.99998 -98.99998,0 z m 49.49884,6.30193 a 43.199655,43.199654 0 0 1 43.20155,43.19922 43.199655,43.199654 0 0 1 -43.20155,43.19923 43.199655,43.199654 0 0 1 -43.19925,-43.19923 43.199655,43.199654 0 0 1 43.19925,-43.19922 z"
       id="rect4140-52"
       inkscape:connector-curvature="0" />
    <path
       style="fill:#0000ff;stroke:#000000;stroke-width:1.0000186;stroke-linecap:butt;stroke-linejoin:miter;stroke-miterlimit:4;stroke-dasharray:none;stroke-opacity:1"
       d="m -739.49999,472.86221 0,98.99998 98.99998,0 0,-98.99998 -98.99998,0 z m 49.49884,6.30193 a 43.199655,43.199654 0 0 1 43.20155,43.19922 43.199655,43.199654 0 0 1 -43.20155,43.19923 43.199655,43.199654 0 0 1 -43.19925,-43.19923 43.199655,43.199654 0 0 1 43.19925,-43.19922 z"
       id="rect4140-3-2"
       inkscape:connector-curvature="0" />
    <path
       style="fill:#0000ff;stroke:#000000;stroke-width:1.0000186;stroke-linecap:butt;stroke-linejoin:miter;stroke-miterlimit:4;stroke-dasharray:none;stroke-opacity:1"
       d="m -839.49999,572.86221 0,98.99998 98.99998,0 0,-98.99998 -98.99998,0 z m 49.49884,6.30193 a 43.199655,43.199654 0 0 1 43.20155,43.19922 43.199655,43.199654 0 0 1 -43.20155,43.19923 43.199655,43.199654 0 0 1 -43.19925,-43.19923 43.199655,43.199654 0 0 1 43.19925,-43.19922 z"
       id="rect4140-5-6"
       inkscape:connector-curvature="0" />
    <path
       style="fill:#0000ff;stroke:#000000;stroke-width:1.0000186;stroke-linecap:butt;stroke-linejoin:miter;stroke-miterlimit:4;stroke-dasharray:none;stroke-opacity:1"
       d="m -739.49999,572.86221 0,98.99998 98.99998,0 0,-98.99998 -98.99998,0 z m 49.49884,6.30193 a 43.199655,43.199654 0 0 1 43.20155,43.19922 43.199655,43.199654 0 0 1 -43.20155,43.19923 43.199655,43.199654 0 0 1 -43.19925,-43.19923 43.199655,43.199654 0 0 1 43.19925,-43.19922 z"
       id="rect4140-3-9-12"
       inkscape:connector-curvature="0" />
    <path
       style="fill:#0000ff;stroke:#000000;stroke-width:1.0000186;stroke-linecap:butt;stroke-linejoin:miter;stroke-miterlimit:4;stroke-dasharray:none;stroke-opacity:1"
       d="m -639.49999,472.86221 0,98.99998 98.99998,0 0,-98.99998 -98.99998,0 z m 49.49884,6.30193 a 43.199655,43.199654 0 0 1 43.20155,43.19922 43.199655,43.199654 0 0 1 -43.20155,43.19923 43.199655,43.199654 0 0 1 -43.19925,-43.19923 43.199655,43.199654 0 0 1 43.19925,-43.19922 z"
       id="rect4140-0-2"
       inkscape:connector-curvature="0" />
    <path
       style="fill:#0000ff;stroke:#000000;stroke-width:1.0000186;stroke-linecap:butt;stroke-linejoin:miter;stroke-miterlimit:4;stroke-dasharray:none;stroke-opacity:1"
       d="m -539.49999,472.86221 0,98.99998 98.99998,0 0,-98.99998 -98.99998,0 z m 49.49884,6.30193 a 43.199655,43.199654 0 0 1 43.20155,43.19922 43.199655,43.199654 0 0 1 -43.20155,43.19923 43.199655,43.199654 0 0 1 -43.19925,-43.19923 43.199655,43.199654 0 0 1 43.19925,-43.19922 z"
       id="rect4140-3-5-4"
       inkscape:connector-curvature="0" />
    <path
       style="fill:#0000ff;stroke:#000000;stroke-width:1.0000186;stroke-linecap:butt;stroke-linejoin:miter;stroke-miterlimit:4;stroke-dasharray:none;stroke-opacity:1"
       d="m -639.49999,572.86221 0,98.99998 98.99998,0 0,-98.99998 -98.99998,0 z m 49.49884,6.30193 a 43.199655,43.199654 0 0 1 43.20155,43.19922 43.199655,43.199654 0 0 1 -43.20155,43.19923 43.199655,43.199654 0 0 1 -43.19925,-43.19923 43.199655,43.199654 0 0 1 43.19925,-43.19922 z"
       id="rect4140-5-8-1"
       inkscape:connector-curvature="0" />
    <path
       style="fill:#0000ff;stroke:#000000;stroke-width:1.0000186;stroke-linecap:butt;stroke-linejoin:miter;stroke-miterlimit:4;stroke-dasharray:none;stroke-opacity:1"
       d="m -539.49999,572.86221 0,98.99998 98.99998,0 0,-98.99998 -98.99998,0 z m 49.49884,6.30193 a 43.199655,43.199654 0 0 1 43.20155,43.19922 43.199655,43.199654 0 0 1 -43.20155,43.19923 43.199655,43.199654 0 0 1 -43.19925,-43.19923 43.199655,43.199654 0 0 1 43.19925,-43.19922 z"
       id="rect4140-3-9-1-7"
       inkscape:connector-curvature="0" />
    <path
       style="fill:#0000ff;stroke:#000000;stroke-width:1.0000186;stroke-linecap:butt;stroke-linejoin:miter;stroke-miterlimit:4;stroke-dasharray:none;stroke-opacity:1"
       d="m -439.49999,72.862214 0,98.999986 98.99998,0 0,-98.999986 -98.99998,0 z m 49.49884,6.30193 a 43.199655,43.199654 0 0 1 43.20155,43.199226 43.199655,43.199654 0 0 1 -43.20155,43.19923 43.199655,43.199654 0 0 1 -43.19925,-43.19923 43.199655,43.199654 0 0 1 43.19925,-43.199226 z"
       id="rect4140-3-8"
       inkscape:connector-curvature="0" />
    <path
       style="fill:#0000ff;stroke:#000000;stroke-width:1.0000186;stroke-linecap:butt;stroke-linejoin:miter;stroke-miterlimit:4;stroke-dasharray:none;stroke-opacity:1"
       d="m -439.49999,172.86222 0,98.99998 98.99998,0 0,-98.99998 -98.99998,0 z m 49.49884,6.30193 a 43.199655,43.199654 0 0 1 43.20155,43.19922 43.199655,43.199654 0 0 1 -43.20155,43.19923 43.199655,43.199654 0 0 1 -43.19925,-43.19923 43.199655,43.199654 0 0 1 43.19925,-43.19922 z"
       id="rect4140-3-9-0"
       inkscape:connector-curvature="0" />
    <path
       style="fill:#0000ff;stroke:#000000;stroke-width:1.0000186;stroke-linecap:butt;stroke-linejoin:miter;stroke-miterlimit:4;stroke-dasharray:none;stroke-opacity:1"
       d="m -339.49999,72.862214 0,98.999986 98.99998,0 0,-98.999986 -98.99998,0 z m 49.49884,6.30193 a 43.199655,43.199654 0 0 1 43.20155,43.199226 43.199655,43.199654 0 0 1 -43.20155,43.19923 43.199655,43.199654 0 0 1 -43.19925,-43.19923 43.199655,43.199654 0 0 1 43.19925,-43.199226 z"
       id="rect4140-0-6"
       inkscape:connector-curvature="0" />
    <path
       style="fill:#0000ff;stroke:#000000;stroke-width:1.0000186;stroke-linecap:butt;stroke-linejoin:miter;stroke-miterlimit:4;stroke-dasharray:none;stroke-opacity:1"
       d="m -239.49999,72.862214 0,98.999986 98.99998,0 0,-98.999986 -98.99998,0 z m 49.49884,6.30193 a 43.199655,43.199654 0 0 1 43.20155,43.199226 43.199655,43.199654 0 0 1 -43.20155,43.19923 43.199655,43.199654 0 0 1 -43.19925,-43.19923 43.199655,43.199654 0 0 1 43.19925,-43.199226 z"
       id="rect4140-3-5-0"
       inkscape:connector-curvature="0" />
    <path
       style="fill:#0000ff;stroke:#000000;stroke-width:1.0000186;stroke-linecap:butt;stroke-linejoin:miter;stroke-miterlimit:4;stroke-dasharray:none;stroke-opacity:1"
       d="m -339.49999,172.86222 0,98.99998 98.99998,0 0,-98.99998 -98.99998,0 z m 49.49884,6.30193 a 43.199655,43.199654 0 0 1 43.20155,43.19922 43.199655,43.199654 0 0 1 -43.20155,43.19923 43.199655,43.199654 0 0 1 -43.19925,-43.19923 43.199655,43.199654 0 0 1 43.19925,-43.19922 z"
       id="rect4140-5-8-15"
       inkscape:connector-curvature="0" />
    <path
       style="fill:#0000ff;stroke:#000000;stroke-width:1.0000186;stroke-linecap:butt;stroke-linejoin:miter;stroke-miterlimit:4;stroke-dasharray:none;stroke-opacity:1"
       d="m -239.49999,172.86222 0,98.99998 98.99998,0 0,-98.99998 -98.99998,0 z m 49.49884,6.30193 a 43.199655,43.199654 0 0 1 43.20155,43.19922 43.199655,43.199654 0 0 1 -43.20155,43.19923 43.199655,43.199654 0 0 1 -43.19925,-43.19923 43.199655,43.199654 0 0 1 43.19925,-43.19922 z"
       id="rect4140-3-9-1-0"
       inkscape:connector-curvature="0" />
    <path
       style="fill:#0000ff;stroke:#000000;stroke-width:1.0000186;stroke-linecap:butt;stroke-linejoin:miter;stroke-miterlimit:4;stroke-dasharray:none;stroke-opacity:1"
       d="m -439.49999,272.86222 0,98.99998 98.99998,0 0,-98.99998 -98.99998,0 z m 49.49884,6.30193 a 43.199655,43.199654 0 0 1 43.20155,43.19922 43.199655,43.199654 0 0 1 -43.20155,43.19923 43.199655,43.199654 0 0 1 -43.19925,-43.19923 43.199655,43.199654 0 0 1 43.19925,-43.19922 z"
       id="rect4140-3-4-3"
       inkscape:connector-curvature="0" />
    <path
       style="fill:#0000ff;stroke:#000000;stroke-width:1.0000186;stroke-linecap:butt;stroke-linejoin:miter;stroke-miterlimit:4;stroke-dasharray:none;stroke-opacity:1"
       d="m -439.49999,372.86222 0,98.99998 98.99998,0 0,-98.99998 -98.99998,0 z m 49.49884,6.30193 a 43.199655,43.199654 0 0 1 43.20155,43.19922 43.199655,43.199654 0 0 1 -43.20155,43.19923 43.199655,43.199654 0 0 1 -43.19925,-43.19923 43.199655,43.199654 0 0 1 43.19925,-43.19922 z"
       id="rect4140-3-9-7-0"
       inkscape:connector-curvature="0" />
    <path
       style="fill:#0000ff;stroke:#000000;stroke-width:1.0000186;stroke-linecap:butt;stroke-linejoin:miter;stroke-miterlimit:4;stroke-dasharray:none;stroke-opacity:1"
       d="m -339.49999,272.86222 0,98.99998 98.99998,0 0,-98.99998 -98.99998,0 z m 49.49884,6.30193 a 43.199655,43.199654 0 0 1 43.20155,43.19922 43.199655,43.199654 0 0 1 -43.20155,43.19923 43.199655,43.199654 0 0 1 -43.19925,-43.19923 43.199655,43.199654 0 0 1 43.19925,-43.19922 z"
       id="rect4140-0-8-2"
       inkscape:connector-curvature="0" />
    <path
       style="fill:#0000ff;stroke:#000000;stroke-width:1.0000186;stroke-linecap:butt;stroke-linejoin:miter;stroke-miterlimit:4;stroke-dasharray:none;stroke-opacity:1"
       d="m -239.49999,272.86222 0,98.99998 98.99998,0 0,-98.99998 -98.99998,0 z m 49.49884,6.30193 a 43.199655,43.199654 0 0 1 43.20155,43.19922 43.199655,43.199654 0 0 1 -43.20155,43.19923 43.199655,43.199654 0 0 1 -43.19925,-43.19923 43.199655,43.199654 0 0 1 43.19925,-43.19922 z"
       id="rect4140-3-5-6-0"
       inkscape:connector-curvature="0" />
    <path
       style="fill:#0000ff;stroke:#000000;stroke-width:1.0000186;stroke-linecap:butt;stroke-linejoin:miter;stroke-miterlimit:4;stroke-dasharray:none;stroke-opacity:1"
       d="m -339.49999,372.86222 0,98.99998 98.99998,0 0,-98.99998 -98.99998,0 z m 49.49884,6.30193 a 43.199655,43.199654 0 0 1 43.20155,43.19922 43.199655,43.199654 0 0 1 -43.20155,43.19923 43.199655,43.199654 0 0 1 -43.19925,-43.19923 43.199655,43.199654 0 0 1 43.19925,-43.19922 z"
       id="rect4140-5-8-9-3"
       inkscape:connector-curvature="0" />
    <path
       style="fill:#0000ff;stroke:#000000;stroke-width:1.0000186;stroke-linecap:butt;stroke-linejoin:miter;stroke-miterlimit:4;stroke-dasharray:none;stroke-opacity:1"
       d="m -239.49999,372.86222 0,98.99998 98.99998,0 0,-98.99998 -98.99998,0 z m 49.49884,6.30193 a 43.199655,43.199654 0 0 1 43.20155,43.19922 43.199655,43.199654 0 0 1 -43.20155,43.19923 43.199655,43.199654 0 0 1 -43.19925,-43.19923 43.199655,43.199654 0 0 1 43.19925,-43.19922 z"
       id="rect4140-3-9-1-1-1"
       inkscape:connector-curvature="0" />
    <path
       style="fill:#0000ff;stroke:#000000;stroke-width:1.0000186;stroke-linecap:butt;stroke-linejoin:miter;stroke-miterlimit:4;stroke-dasharray:none;stroke-opacity:1"
       d="m -439.49999,472.86222 0,98.99998 98.99998,0 0,-98.99998 -98.99998,0 z m 49.49884,6.30193 a 43.199655,43.199654 0 0 1 43.20155,43.19922 43.199655,43.199654 0 0 1 -43.20155,43.19923 43.199655,43.199654 0 0 1 -43.19925,-43.19923 43.199655,43.199654 0 0 1 43.19925,-43.19922 z"
       id="rect4140-3-2-9"
       inkscape:connector-curvature="0" />
    <path
       style="fill:#0000ff;stroke:#000000;stroke-width:1.0000186;stroke-linecap:butt;stroke-linejoin:miter;stroke-miterlimit:4;stroke-dasharray:none;stroke-opacity:1"
       d="m -439.49999,572.86222 0,98.99998 98.99998,0 0,-98.99998 -98.99998,0 z m 49.49884,6.30193 a 43.199655,43.199654 0 0 1 43.20155,43.19922 43.199655,43.199654 0 0 1 -43.20155,43.19923 43.199655,43.199654 0 0 1 -43.19925,-43.19923 43.199655,43.199654 0 0 1 43.19925,-43.19922 z"
       id="rect4140-3-9-12-3"
       inkscape:connector-curvature="0" />
    <path
       style="fill:#0000ff;stroke:#000000;stroke-width:1.0000186;stroke-linecap:butt;stroke-linejoin:miter;stroke-miterlimit:4;stroke-dasharray:none;stroke-opacity:1"
       d="m -339.49999,472.86222 0,98.99998 98.99998,0 0,-98.99998 -98.99998,0 z m 49.49884,6.30193 a 43.199655,43.199654 0 0 1 43.20155,43.19922 43.199655,43.199654 0 0 1 -43.20155,43.19923 43.199655,43.199654 0 0 1 -43.19925,-43.19923 43.199655,43.199654 0 0 1 43.19925,-43.19922 z"
       id="rect4140-0-2-4"
       inkscape:connector-curvature="0" />
    <path
       style="fill:#0000ff;stroke:#000000;stroke-width:1.0000186;stroke-linecap:butt;stroke-linejoin:miter;stroke-miterlimit:4;stroke-dasharray:none;stroke-opacity:1"
       d="m -239.49999,472.86222 0,98.99998 98.99998,0 0,-98.99998 -98.99998,0 z m 49.49884,6.30193 a 43.199655,43.199654 0 0 1 43.20155,43.19922 43.199655,43.199654 0 0 1 -43.20155,43.19923 43.199655,43.199654 0 0 1 -43.19925,-43.19923 43.199655,43.199654 0 0 1 43.19925,-43.19922 z"
       id="rect4140-3-5-4-6"
       inkscape:connector-curvature="0" />
    <path
       style="fill:#0000ff;stroke:#000000;stroke-width:1.0000186;stroke-linecap:butt;stroke-linejoin:miter;stroke-miterlimit:4;stroke-dasharray:none;stroke-opacity:1"
       d="m -339.49999,572.86222 0,98.99998 98.99998,0 0,-98.99998 -98.99998,0 z m 49.49884,6.30193 a 43.199655,43.199654 0 0 1 43.20155,43.19922 43.199655,43.199654 0 0 1 -43.20155,43.19923 43.199655,43.199654 0 0 1 -43.19925,-43.19923 43.199655,43.199654 0 0 1 43.19925,-43.19922 z"
       id="rect4140-5-8-1-6"
       inkscape:connector-curvature="0" />
    <path
       style="fill:#0000ff;stroke:#000000;stroke-width:1.0000186;stroke-linecap:butt;stroke-linejoin:miter;stroke-miterlimit:4;stroke-dasharray:none;stroke-opacity:1"
       d="m -239.49999,572.86222 0,98.99998 98.99998,0 0,-98.99998 -98.99998,0 z m 49.49884,6.30193 a 43.199655,43.199654 0 0 1 43.20155,43.19922 43.199655,43.199654 0 0 1 -43.20155,43.19923 43.199655,43.199654 0 0 1 -43.19925,-43.19923 43.199655,43.199654 0 0 1 43.19925,-43.19922 z"
       id="rect4140-3-9-1-7-9"
       inkscape:connector-curvature="0" />
    <g
       id="g4204"
       transform="translate(-16.000008,4.9999992)"
       inkscape:export-xdpi="90"
       inkscape:export-ydpi="90">
      <rect
         y="92.362206"
         x="46.000008"
         height="98.999992"
         width="98.999992"
         id="rect4179"
         style="fill:none;stroke:none;stroke-width:1;stroke-linecap:butt;stroke-linejoin:miter;stroke-miterlimit:4;stroke-dasharray:none;stroke-opacity:1" />
      <circle
         r="44.499996"
         cy="141.8622"
         cx="95.5"
         id="path4177"
         style="fill:#969696;fill-opacity:1;stroke:#000000;stroke-width:1;stroke-linecap:butt;stroke-linejoin:miter;stroke-miterlimit:4;stroke-dasharray:none;stroke-opacity:1" />
      <circle
         r="32.000027"
         cy="141.8622"
         cx="95.5"
         id="path4177-2"
         style="fill:#c8c8c8;fill-opacity:1;stroke:#000000;stroke-width:0.99994451;stroke-linecap:butt;stroke-linejoin:miter;stroke-miterlimit:4;stroke-dasharray:none;stroke-opacity:1" />
    </g>
  </g>
</svg>
